<?xml version="1.0" standalone="no"?>
<!DOCTYPE svg PUBLIC "-//W3C//DTD SVG 20010904//EN"
 "http://www.w3.org/TR/2001/REC-SVG-20010904/DTD/svg10.dtd">
<svg version="1.0" xmlns="http://www.w3.org/2000/svg"
 width="1845.000000pt" height="1845.000000pt" viewBox="0 0 1845.000000 1845.000000"
 preserveAspectRatio="xMidYMid meet">
<metadata>
Created by potrace 1.14, written by Peter Selinger 2001-2017
</metadata>
<g transform="translate(0.000000,1845.000000) scale(0.100000,-0.100000)"
fill="#000000" stroke="none">
<path d="M4924 14189 c37 -500 324 -1165 779 -1801 107 -151 147 -203 260
-341 85 -105 95 -116 154 -184 31 -35 48 -63 41 -63 -20 0 -205 53 -319 90
-247 82 -613 251 -819 378 -19 12 -42 25 -50 29 -38 17 -288 185 -405 272
-204 152 -366 293 -547 476 l-50 50 5 -55 c18 -182 151 -395 402 -645 236
-235 558 -474 990 -737 77 -46 163 -97 190 -113 163 -91 236 -131 285 -158 30
-16 57 -32 60 -34 5 -5 -152 5 -200 12 -14 2 -56 7 -95 10 -70 6 -86 8 -199
21 -33 4 -71 8 -85 9 -14 1 -48 5 -76 9 -27 3 -108 13 -179 21 -71 9 -143 18
-160 20 -130 18 -195 27 -216 30 -14 2 -70 11 -125 19 -55 8 -118 18 -140 21
-79 12 -332 56 -430 75 -55 10 -114 21 -132 25 -18 3 -92 19 -165 36 -73 16
-144 32 -158 35 -14 3 -43 10 -65 16 -22 5 -49 12 -60 14 -11 2 -51 13 -90 25
-38 11 -86 25 -105 29 -42 11 -256 84 -305 104 -33 14 -35 14 -26 -2 22 -41
141 -138 259 -211 397 -246 1041 -461 1927 -642 55 -12 111 -22 125 -24 46 -7
133 -25 137 -29 2 -2 -31 -7 -74 -10 -43 -4 -89 -9 -103 -11 -14 -2 -61 -6
-105 -10 -44 -3 -91 -8 -105 -10 -14 -2 -65 -7 -115 -10 -49 -4 -103 -8 -120
-10 -16 -2 -68 -6 -115 -10 -47 -3 -101 -8 -120 -10 -19 -2 -80 -7 -135 -10
-55 -4 -118 -9 -140 -10 -22 -2 -89 -7 -150 -10 -60 -4 -128 -8 -150 -10 -23
-2 -92 -6 -155 -10 -63 -3 -142 -8 -175 -10 -55 -4 -221 -11 -495 -21 -123 -4
-715 -5 -777 -1 -24 2 -43 0 -43 -3 0 -3 48 -21 108 -39 59 -19 118 -37 132
-42 26 -9 257 -65 300 -73 14 -3 50 -10 80 -16 30 -6 69 -14 85 -16 17 -3 50
-9 75 -14 71 -14 166 -29 290 -45 112 -14 157 -19 270 -30 30 -3 80 -8 110
-10 202 -20 442 -29 747 -30 150 0 273 -3 273 -6 0 -5 -110 -33 -180 -45 -8
-2 -85 -19 -170 -39 -85 -20 -165 -39 -178 -41 -12 -2 -62 -14 -110 -25 -48
-12 -94 -22 -102 -24 -8 -2 -61 -14 -116 -29 -56 -14 -112 -27 -125 -30 -13
-3 -87 -21 -164 -41 -77 -19 -151 -38 -163 -41 -13 -2 -49 -12 -80 -20 -32 -8
-65 -17 -74 -19 -184 -41 -837 -234 -1098 -325 l-145 -50 225 6 c124 3 250 7
280 9 30 1 123 6 205 10 83 3 166 8 185 10 19 2 82 6 140 10 58 3 123 8 145
10 22 2 83 6 135 10 52 3 106 8 120 10 14 2 61 7 105 10 44 3 96 8 115 10 19
2 82 9 140 15 58 6 116 13 130 15 14 2 56 7 95 10 38 4 78 9 89 11 11 2 56 8
100 14 143 19 282 40 424 65 52 9 96 14 99 11 4 -3 -2 -6 -13 -6 -10 0 -68
-14 -129 -31 -60 -17 -117 -32 -125 -34 -56 -13 -499 -148 -696 -214 -515
-170 -853 -313 -1064 -450 -91 -59 -135 -95 -151 -124 -10 -17 -2 -17 133 -12
79 3 166 7 193 9 28 3 88 7 134 11 47 4 92 8 100 10 9 1 47 6 84 10 37 3 76 8
85 10 9 1 42 6 72 10 30 4 64 9 75 11 10 2 37 6 60 10 37 5 92 15 155 29 13 2
42 7 63 10 63 10 390 92 531 135 136 41 264 85 401 140 160 64 180 71 170 62
-5 -5 -37 -31 -70 -58 -33 -27 -76 -63 -95 -80 -19 -17 -91 -80 -160 -140
-420 -366 -766 -717 -853 -867 -16 -26 -27 -52 -25 -57 8 -21 510 210 793 365
188 103 494 296 503 317 2 5 8 8 13 8 6 0 -43 -51 -107 -112 -252 -244 -378
-436 -335 -515 29 -54 155 -69 321 -38 95 18 285 68 343 91 53 20 54 19 61
-31 9 -56 50 -100 109 -116 54 -14 167 -12 240 5 l57 13 0 -76 c0 -187 72
-282 215 -285 l60 -1 6 -50 c18 -143 129 -226 280 -211 51 6 142 26 179 40 10
4 22 -4 34 -24 10 -17 16 -33 14 -34 -1 -2 -65 -35 -140 -74 -249 -129 -713
-432 -1087 -709 -158 -117 -360 -269 -376 -283 -24 -21 -164 -64 -735 -225
-30 -9 -71 -20 -90 -25 -19 -6 -93 -26 -165 -46 -308 -85 -304 -84 -250 -78
28 3 61 7 75 9 81 13 303 45 345 50 28 4 57 8 65 10 8 3 62 11 120 20 58 8
116 17 130 19 89 15 182 27 186 23 2 -2 -38 -15 -88 -29 -51 -14 -228 -65
-393 -113 -288 -83 -423 -122 -455 -131 -111 -30 -210 -60 -210 -65 0 -9 140
-38 240 -48 149 -16 426 -25 779 -25 178 0 320 -1 315 -2 -7 -2 -126 -21 -504
-79 -14 -2 -43 -6 -65 -10 -23 -3 -52 -8 -65 -10 -14 -3 -47 -8 -74 -11 -76
-9 -100 -21 -41 -21 61 0 189 -11 270 -23 33 -5 80 -11 105 -14 25 -3 54 -8
65 -10 11 -2 40 -7 65 -11 25 -4 54 -9 65 -11 10 -2 37 -6 59 -10 22 -3 43 -7
46 -9 3 -2 23 -6 45 -9 56 -9 318 -62 396 -80 74 -18 108 -24 128 -25 16 -1 7
-14 -12 -17 -11 -2 -136 -35 -472 -125 -60 -16 -229 -60 -375 -98 -259 -68
-351 -92 -555 -146 -55 -15 -108 -28 -117 -30 -9 -2 -51 -13 -93 -25 -42 -12
-84 -23 -93 -25 -9 -2 -53 -13 -97 -25 -113 -30 -846 -222 -990 -260 -66 -17
-134 -35 -151 -41 -17 -5 -40 -11 -50 -13 -10 -2 -73 -18 -139 -36 -276 -73
-352 -93 -585 -154 l-245 -65 -45 31 c-218 153 -340 228 -505 310 -86 44 -218
96 -260 103 -64 12 -75 13 -75 6 0 -16 120 -126 213 -194 54 -40 158 -110 231
-157 74 -47 143 -90 153 -97 10 -6 -27 8 -83 32 -170 74 -354 131 -489 152
-78 12 -265 7 -309 -9 l-38 -14 23 -16 c62 -40 368 -139 739 -239 96 -25 123
-39 58 -30 -69 11 -253 3 -355 -15 -15 -3 -38 -7 -50 -9 -12 -2 -72 -16 -133
-31 -80 -20 -108 -30 -100 -38 19 -19 453 -12 560 9 9 2 43 6 75 10 64 7 95
12 135 20 14 3 43 7 65 10 75 9 210 37 340 70 72 19 141 36 155 39 14 3 133
33 265 66 132 34 247 63 255 65 8 2 213 54 455 116 242 61 456 115 475 120 19
4 170 42 335 84 165 42 307 78 315 80 16 4 758 191 1325 335 198 50 367 93
375 95 8 2 69 17 135 33 l120 30 83 -22 c45 -11 82 -24 82 -27 0 -11 -431
-150 -585 -188 -22 -5 -105 -27 -185 -49 -184 -51 -913 -232 -1000 -248 -14
-3 -52 -12 -85 -21 -33 -8 -71 -17 -85 -20 -14 -2 -43 -9 -65 -14 -22 -5 -51
-12 -64 -15 -13 -3 -130 -29 -260 -59 -130 -30 -247 -56 -261 -59 -14 -2 -68
-14 -120 -26 -52 -12 -106 -23 -120 -26 -14 -3 -86 -19 -160 -36 -74 -16 -144
-32 -155 -34 -11 -2 -31 -6 -45 -9 -14 -3 -36 -8 -50 -11 -41 -8 -97 -20 -275
-59 -93 -20 -179 -38 -190 -41 -11 -2 -29 -6 -40 -8 -212 -46 -275 -59 -300
-63 -16 -2 -36 -6 -43 -8 -7 -3 -92 -21 -190 -40 -301 -61 -632 -148 -777
-204 -90 -35 -125 -56 -125 -76 0 -15 58 -35 102 -35 26 0 494 102 868 190 96
23 182 43 190 45 89 20 404 94 555 130 105 25 249 59 320 76 72 16 137 32 145
34 38 9 339 80 465 110 77 18 228 54 335 79 107 26 203 49 213 51 10 2 26 6
35 9 9 3 28 7 42 10 23 4 315 74 405 97 22 5 49 11 60 14 11 2 144 33 295 70
151 37 282 68 290 70 66 15 164 38 210 50 30 8 114 29 185 46 72 16 159 37
195 46 38 9 123 17 205 18 77 2 156 6 175 10 116 21 194 39 260 62 75 25 124
26 255 7 35 -5 426 -5 470 0 17 2 62 6 100 10 63 6 97 10 175 21 14 2 45 7 70
10 417 58 1061 255 1630 500 250 107 699 324 906 438 43 24 110 61 148 82 226
123 603 354 655 400 81 73 248 161 431 227 568 206 1359 419 2440 657 599 132
1035 219 1285 258 142 21 472 119 640 188 74 31 165 56 260 72 17 2 93 18 170
33 77 16 151 31 165 34 14 2 61 12 105 21 44 9 89 19 100 21 50 10 215 43 240
49 16 3 89 17 106 20 8 2 94 19 190 39 187 38 214 43 257 51 15 3 61 13 102
21 41 9 86 18 100 20 14 3 79 16 145 29 66 14 131 27 145 30 14 3 48 9 75 15
28 6 61 12 75 15 14 2 57 11 95 19 39 9 81 17 95 20 14 2 36 7 50 10 14 3 36
8 50 10 25 5 101 20 150 31 14 3 36 7 50 10 14 3 36 7 50 10 14 3 36 7 50 10
142 27 285 56 288 60 3 3 -22 3 -54 1 -32 -3 -111 -7 -174 -11 -63 -4 -137 -8
-165 -10 -27 -3 -99 -7 -160 -10 -60 -3 -135 -7 -165 -10 -30 -2 -104 -6 -165
-10 -60 -3 -137 -8 -170 -10 -33 -2 -105 -7 -160 -10 -138 -8 -258 -15 -335
-20 -36 -2 -110 -7 -165 -10 -55 -3 -131 -8 -170 -10 -38 -3 -110 -7 -160 -10
-122 -7 -246 -14 -330 -20 -38 -3 -117 -7 -175 -10 -58 -3 -125 -8 -150 -10
-25 -2 -103 -7 -175 -10 -71 -4 -137 -8 -145 -10 -9 -2 -42 17 -75 41 -82 62
-197 128 -284 164 -79 32 -214 77 -259 85 -15 3 -38 7 -52 10 -187 42 -483 51
-626 21 -30 -6 -128 17 -203 47 l-63 26 23 -26 c40 -42 133 -90 215 -111 52
-13 70 -21 52 -22 -16 -2 -31 -3 -35 -4 -22 -6 -153 -19 -188 -19 -37 0 -158
9 -230 17 -161 18 -172 20 -270 40 -249 50 -469 141 -610 251 -32 24 -60 43
-62 41 -9 -9 53 -93 106 -147 113 -112 254 -189 456 -248 125 -37 247 -49 449
-47 l188 2 -93 -44 -94 -44 -130 6 c-191 10 -322 20 -400 31 -137 19 -193 30
-302 56 -194 47 -374 126 -499 219 -97 72 -91 70 -64 21 32 -57 141 -166 213
-214 153 -102 354 -172 562 -195 132 -15 417 -4 506 19 20 5 65 11 100 14 35
3 87 7 114 10 l50 4 -55 -27 c-322 -158 -564 -245 -930 -337 -150 -38 -355
-81 -427 -91 -27 -3 -50 -8 -53 -9 -3 -2 -33 -7 -65 -10 -33 -4 -63 -9 -66
-11 -3 -1 -31 -6 -63 -9 -31 -4 -66 -8 -76 -10 -10 -2 -47 -6 -82 -10 -35 -3
-74 -8 -88 -10 -14 -2 -63 -7 -110 -11 -47 -3 -101 -8 -120 -9 -77 -7 -371
-18 -458 -18 -105 0 -93 -6 -290 146 -207 161 -479 447 -469 492 3 11 21 74
40 140 47 160 110 407 142 555 20 93 38 180 41 200 3 14 9 48 14 75 5 28 12
68 16 90 3 22 7 47 9 55 2 8 7 35 10 60 3 25 12 88 20 140 8 52 17 131 21 175
3 44 8 89 10 99 16 85 22 494 10 671 -8 123 -29 291 -41 335 -2 8 -7 31 -10
50 -19 116 -77 287 -146 425 -88 177 -113 205 -304 338 -94 64 -178 124 -188
132 -9 8 -19 15 -22 15 -12 0 -770 554 -995 727 -529 408 -898 734 -1061 940
-32 41 -59 71 -59 66 0 -16 47 -123 111 -253 187 -376 470 -741 829 -1070 115
-106 364 -298 493 -383 31 -20 57 -39 57 -41 0 -6 -533 201 -670 261 -19 8
-44 19 -55 23 -325 136 -643 287 -726 346 l-50 35 16 -28 c74 -134 201 -269
365 -389 150 -111 283 -183 505 -275 44 -18 94 -40 110 -49 17 -9 55 -29 85
-45 79 -42 236 -145 306 -202 76 -62 135 -115 131 -120 -2 -2 -53 18 -113 43
-208 88 -451 183 -564 220 -25 8 -54 19 -65 24 -93 42 -571 174 -705 195 -25
4 -54 9 -65 12 -35 7 -265 16 -265 10 0 -16 382 -246 630 -379 138 -75 386
-197 523 -258 71 -32 131 -60 134 -63 2 -3 -29 5 -70 18 -265 85 -611 152
-767 149 -142 -2 -196 -11 -277 -46 l-31 -13 84 -55 c47 -30 91 -61 99 -67 7
-7 16 -13 19 -13 3 0 43 -24 88 -53 83 -53 232 -142 318 -189 25 -14 72 -40
105 -59 102 -56 325 -165 430 -208 55 -23 109 -46 120 -51 l20 -10 -20 5
c-306 73 -398 95 -435 100 -24 4 -48 9 -52 11 -4 3 -20 7 -35 9 -16 2 -41 7
-58 10 -96 18 -147 26 -205 31 -36 3 -77 7 -91 9 -59 7 -48 -13 32 -60 296
-171 765 -418 915 -481 l70 -29 -135 0 c-113 0 -148 -4 -209 -23 -86 -27 -154
-84 -170 -144 -21 -78 12 -199 90 -326 21 -34 38 -65 38 -69 0 -4 -10 -27 -22
-52 -19 -38 -23 -63 -23 -141 0 -89 2 -100 35 -165 24 -48 61 -97 117 -154
l81 -84 -22 -36 c-54 -87 -66 -163 -38 -245 l19 -58 -126 130 c-136 139 -448
464 -503 523 -113 123 -226 245 -241 263 -10 12 -33 37 -50 56 -18 19 -65 73
-106 120 -40 47 -85 99 -100 115 -15 17 -60 71 -101 120 -41 50 -79 95 -85
101 -5 6 -21 26 -35 44 -14 18 -30 38 -35 44 -70 76 -292 394 -368 525 -58
103 -184 293 -225 342 -11 13 -48 58 -83 99 -97 115 -321 334 -456 445 -165
136 -162 134 -300 232 -118 84 -126 92 -217 218 -299 415 -619 886 -823 1210
-129 206 -293 487 -293 504 0 5 -5 13 -11 17 -8 5 -10 -17 -5 -77z m-154
-3693 c0 -2 -7 -6 -15 -10 -8 -3 -15 -1 -15 4 0 6 7 10 15 10 8 0 15 -2 15 -4z"/>
</g>
</svg>
